<svg id="logosandtypes_com" data-name="logosandtypes com" xmlns="http://www.w3.org/2000/svg" viewBox="0 0 150 150"><defs><style>.cls-1{fill:none;}.cls-2{fill:#3d2557;}.cls-3{fill:#6c0;}</style></defs><path class="cls-1" d="M0,0H150V150H0Z" transform="translate(0 0)"/><path class="cls-2" d="M148.79,42.76,82.88,55.86l1.51,4.19h.26C127.14,49.68,148.79,43.48,149,43.42a.3.3,0,0,0,.27-.39c0-.19-.19-.27-.45-.27" transform="translate(0 0)"/><path class="cls-3" d="M94.76,46.33c3.74-2.22-2.47,9.7-17.87,21.9a91.77,91.77,0,0,1-13.35,9c10-14,24.54-26.58,31.19-30.88m1.72-4.86c-3.17.16-8.92,4.75-12.09,7.52-12.67,11-22.09,21-28.95,31.57A345.27,345.27,0,0,1,4.86,102.25l-.42.16L1,111.78A474,474,0,0,0,51.05,89.3c-2.91,6.85-1.86,14.88,5.54,17.81C75,114.87,111.21,86,117.3,81.72l.21-.16a.36.36,0,0,0,.11-.45.35.35,0,0,0-.48-.08l-.26.14c-4.15,1.86-49.89,31.9-60.42,19-2.76-4.5-.27-10,3.14-15.57,2.64-1.48,5-2.91,7.23-4.31,15.1-8.49,32.47-25,33.26-35.1A3.53,3.53,0,0,0,99,42.58a3.3,3.3,0,0,0-2.63-1.06" transform="translate(0 0)"/><path class="cls-2" d="M84.2,55.62,16.48,70.13l-2.64,7.08L84.41,60.05h.11V55.56l-.32.06" transform="translate(0 0)"/></svg>